Coordinates
version=1
nRows=8
nColumns=40
inDegrees=yes

Units are S.I. units (second, meters, Newtons, ...)
If the header above contains a line with 'inDegrees', this indicates whether rotational values are in degrees (yes) or radians (no).

endheader
time	pelvis_tilt	pelvis_list	pelvis_rotation	pelvis_tx	pelvis_ty	pelvis_tz	hip_flexion_r	hip_adduction_r	hip_rotation_r	knee_angle_r	knee_angle_r_beta	ankle_angle_r	subtalar_angle_r	mtp_angle_r	hip_flexion_l	hip_adduction_l	hip_rotation_l	knee_angle_l	knee_angle_l_beta	ankle_angle_l	subtalar_angle_l	mtp_angle_l	lumbar_extension	lumbar_bending	lumbar_rotation	arm_flex_r	arm_add_r	arm_rot_r	elbow_flex_r	pro_sup_r	wrist_flex_r	wrist_dev_r	arm_flex_l	arm_add_l	arm_rot_l	elbow_flex_l	pro_sup_l	wrist_flex_l	wrist_dev_l
1749651037.52999997	     -5.62516795	     14.42178630	     -8.77707165	      0.21741987	     -0.40339786	      0.78532391	     80.00000000	     -7.00000000	      0.00000000	     80.00000000	      1.39626340	      0.00000000	      0.00000000	      0.00000000	     80.00000000	     -7.00000000	      0.00000000	     80.00000000	      1.39626340	      0.00000000	      0.00000000	      0.00000000	     -2.96456293	      5.99936007	    -59.06255467	     23.02521016	    -10.46708696	    -85.71868087	      0.25763326	      3.46145776	      0.00000000	      5.00000014	     13.60338257	     -7.08217607	      0.04724172	     75.00017585	     45.00000026	      0.00000000	      5.00000014
1749651037.56299996	     -5.51570987	     14.48709031	     -8.80400129	      0.21799040	     -0.40284505	      0.78499805	     80.00000000	     -7.00000000	      0.00000000	     80.00000000	      1.39626340	      0.00000000	      0.00000000	      0.00000000	     80.00000000	     -7.00000000	      0.00000000	     80.00000000	      1.39626340	      0.00000000	      0.00000000	      0.00000000	     -2.96691377	      6.10319273	    -59.12965998	     24.10144031	    -11.10041203	    -85.53997280	      0.37824297	      3.62434059	      0.00000000	      5.00000014	     13.66101641	     -7.00843913	      0.04792964	     75.00017585	     45.00000026	      0.00000000	      5.00000014
1749651037.59699988	     -5.66714328	     14.52198929	     -8.36377780	      0.21721789	     -0.40180087	      0.78494517	     80.00000000	     -7.00000000	      0.00000000	     80.00000000	      1.39626340	      0.00000000	      0.00000000	      0.00000000	     80.00000000	     -7.00000000	      0.00000000	     80.00000000	      1.39626340	      0.00000000	      0.00000000	      0.00000000	     -2.85311916	      6.30085688	    -58.61286471	     23.57985749	    -11.56576976	    -85.20425540	      0.36788498	      3.85103921	      0.00000000	      5.00000014	     14.23113281	     -6.98297969	      0.04781740	     75.00017585	     45.00000026	      0.00000000	      5.00000014
1749651037.63000011	     -5.37351554	     14.64275211	     -8.91921644	      0.21861505	     -0.40274741	      0.78474502	     80.00000000	     -7.00000000	      0.00000000	     80.00000000	      1.39626340	      0.00000000	      0.00000000	      0.00000000	     80.00000000	     -7.00000000	      0.00000000	     80.00000000	      1.39626340	      0.00000000	      0.00000000	      0.00000000	     -3.00662442	      6.16483086	    -58.18663312	     23.78141864	    -11.70894437	    -83.62525132	      0.36820525	      6.01398239	      0.00000000	      5.00000014	     14.36021958	     -6.75513756	      0.05015892	     75.00017585	     45.00000026	      0.00000000	      5.00000014
1749651037.66400003	     -5.51717934	     14.57789218	    -12.42022912	      0.21655231	     -0.40355429	      0.79050046	     80.00000000	     -7.00000000	      0.00000000	     80.00000000	      1.39626340	      0.00000000	      0.00000000	      0.00000000	     80.00000000	     -7.00000000	      0.00000000	     80.00000000	      1.39626340	      0.00000000	      0.00000000	      0.00000000	     -3.42442003	      6.20976455	    -53.96501338	     23.42510591	    -11.74338232	    -82.76295716	      0.34896035	      5.81723095	      0.00000000	      5.00000014	     15.00219910	     -6.60058588	      0.05163262	     75.00017585	     45.00000026	      0.00000000	      5.00000014
1749651037.69700003	     -5.31090577	     14.73957476	    -13.42886643	      0.21721836	     -0.40346854	      0.79131026	     80.00000000	     -7.00000000	      0.00000000	     80.00000000	      1.39626340	      0.00000000	      0.00000000	      0.00000000	     80.00000000	     -7.00000000	      0.00000000	     80.00000000	      1.39626340	      0.00000000	      0.00000000	      0.00000000	     -3.47291357	      5.93004640	    -54.02686263	     24.73844889	    -11.49583226	    -80.91806271	      0.36389714	      7.52136208	      0.00000000	      5.00000014	     14.41221790	     -6.70231723	      0.05126125	     75.00017585	     45.00000026	      0.00000000	      5.00000014
1749651037.73099995	     -5.32802458	     14.68498389	    -14.05582631	      0.21682843	     -0.40372598	      0.79239426	     80.00000000	     -7.00000000	      0.00000000	     80.00000000	      1.39626340	      0.00000000	      0.00000000	      0.00000000	     80.00000000	     -7.00000000	      0.00000000	     80.00000000	      1.39626340	      0.00000000	      0.00000000	      0.00000000	     -3.53830495	      5.92262393	    -53.37962263	     25.49648107	    -11.56597892	    -79.19928533	      0.44691123	     10.28291453	      0.00000000	      5.00000014	     14.36562799	     -6.75764431	      0.05097122	     75.00017585	     45.00000026	      0.00000000	      5.00000014
1749651037.76399994	     -5.43025129	     14.65396735	    -13.03312820	      0.21671383	     -0.40303892	      0.79136571	     80.00000000	     -7.00000000	      0.00000000	     80.00000000	      1.39626340	      0.00000000	      0.00000000	      0.00000000	     80.00000000	     -7.00000000	      0.00000000	     80.00000000	      1.39626340	      0.00000000	      0.00000000	      0.00000000	     -3.33217001	      5.89751192	    -54.87871704	     25.53486986	    -11.22121406	    -84.44901446	      0.29434107	      4.08435338	      0.00000000	      5.00000014	     13.90617466	     -6.94176387	      0.04892210	     75.00017585	     45.00000026	      0.00000000	      5.00000014
